<?xml version="1.0" encoding="UTF-8"?>
<svg id="Capa_1" data-name="Capa 1" xmlns="http://www.w3.org/2000/svg" viewBox="160 130 500 540">
  <defs>
    <style>
      .cls-1 {
        fill: #fff;
      }

      .cls-2, .cls-3 {
        fill: #2c84ce;
      }

      .cls-2, .cls-4 {
        stroke: #2c84ce;
        stroke-miterlimit: 10;
        stroke-width: 5px;
      }

      .cls-4 {
        fill: none;
      }
    </style>
  </defs>
  <g>
    <g>
      <path class="cls-2" d="M228.19,421.7c0-12.4,8.77-21.62,30.84-21.62,11.64,0,21.01,1.81,21.01,1.81v-6.65c0-15.42-7.11-24.04-21.77-24.04-19.5,0-22.37,14.51-22.37,14.51h-3.78v-3.78s4.69-15.27,26.3-15.27c17.38,0,26.6,9.98,26.6,28.87v46.71h-3.93l-.45-17.99c-4.23,12.24-13.3,19.5-26.15,19.5-18.14,0-26.3-9.52-26.3-22.07ZM280.04,411.42v-5.14s-8.47-1.81-21.16-1.81c-20.26,0-26,8.31-26,17.23,0,11.03,7.56,17.69,21.77,17.69,17.69,0,25.4-14.97,25.4-27.97Z"/>
      <path class="cls-2" d="M228.19,421.7c0-12.4,8.77-21.62,30.84-21.62,11.64,0,21.01,1.81,21.01,1.81v-6.65c0-15.42-7.11-24.04-21.77-24.04-19.5,0-22.37,14.51-22.37,14.51h-3.78v-3.78s4.69-15.27,26.3-15.27c17.38,0,26.6,9.98,26.6,28.87v46.71h-3.93l-.45-17.99c-4.23,12.24-13.3,19.5-26.15,19.5-18.14,0-26.3-9.52-26.3-22.07ZM280.04,411.42v-5.14s-8.47-1.81-21.16-1.81c-20.26,0-26,8.31-26,17.23,0,11.03,7.56,17.69,21.77,17.69,17.69,0,25.4-14.97,25.4-27.97Z"/>
    </g>
    <g>
      <path class="cls-2" d="M339.29,412.48v-44.29h4.99v42.02c0,20.86,9.37,29.02,23.73,29.02,11.64,0,24.64-7.71,24.64-28.87v-42.17h4.99v74.07h-3.93l-.45-16.33c-4.08,11.49-12.85,17.84-25.24,17.84-17.38,0-28.72-9.52-28.72-31.29Z"/>
      <path class="cls-2" d="M339.29,412.48v-44.29h4.99v42.02c0,20.86,9.37,29.02,23.73,29.02,11.64,0,24.64-7.71,24.64-28.87v-42.17h4.99v74.07h-3.93l-.45-16.33c-4.08,11.49-12.85,17.84-25.24,17.84-17.38,0-28.72-9.52-28.72-31.29Z"/>
    </g>
    <g>
      <path class="cls-2" d="M453.87,328.89h4.99v113.37h-4.99v-113.37Z"/>
      <path class="cls-2" d="M453.87,328.89h4.99v113.37h-4.99v-113.37Z"/>
    </g>
    <g>
      <path class="cls-2" d="M508.89,421.7c0-12.4,8.77-21.62,30.84-21.62,11.64,0,21.01,1.81,21.01,1.81v-6.65c0-15.42-7.11-24.04-21.77-24.04-19.5,0-22.37,14.51-22.37,14.51h-3.78v-3.78s4.69-15.27,26.3-15.27c17.38,0,26.6,9.98,26.6,28.87v46.71h-3.93l-.45-17.99c-4.23,12.24-13.3,19.5-26.15,19.5-18.14,0-26.3-9.52-26.3-22.07ZM560.74,411.42v-5.14s-8.47-1.81-21.16-1.81c-20.26,0-26,8.31-26,17.23,0,11.03,7.56,17.69,21.77,17.69,17.69,0,25.4-14.97,25.4-27.97Z"/>
      <path class="cls-2" d="M508.89,421.7c0-12.4,8.77-21.62,30.84-21.62,11.64,0,21.01,1.81,21.01,1.81v-6.65c0-15.42-7.11-24.04-21.77-24.04-19.5,0-22.37,14.51-22.37,14.51h-3.78v-3.78s4.69-15.27,26.3-15.27c17.38,0,26.6,9.98,26.6,28.87v46.71h-3.93l-.45-17.99c-4.23,12.24-13.3,19.5-26.15,19.5-18.14,0-26.3-9.52-26.3-22.07ZM560.74,411.42v-5.14s-8.47-1.81-21.16-1.81c-20.26,0-26,8.31-26,17.23,0,11.03,7.56,17.69,21.77,17.69,17.69,0,25.4-14.97,25.4-27.97Z"/>
    </g>
    <line class="cls-4" x1="228.19" y1="466.78" x2="578.39" y2="466.78"/>
  </g>
  <g>
    <circle class="cls-3" cx="559.52" cy="246.19" r="96.78"/>
    <g>
      <path class="cls-3" d="M626.92,333.38c-3.54,2.74-7.26,5.27-11.13,7.58,26.47,96.23-16.7,201.84-107.85,251.66-71.39,39.01-157.33,35.18-225.03-9.72-93.94-62.3-127.32-184.66-75.46-285.59,19.03-37.04,47.39-68.42,83.33-89.66,54.14-31.99,117.47-40.22,175.98-20.97,2.51-3.9,5.26-7.63,8.23-11.18-43.63-15.26-91.15-16.33-136.38-2.98-135.86,40.09-206.42,192.61-146.77,322.81,16.54,36.11,41.97,67.63,74.19,91.31,39.63,29.13,86.83,45.73,136.24,45.8,52.38.08,102.5-17.3,143.52-49.22,73.6-57.26,106.34-153.62,82.74-244.05-.51-1.94-1.05-3.87-1.61-5.79Z"/>
      <path class="cls-3" d="M402.63,633.93h-.36c-48.78-.07-96.19-16.01-137.12-46.09-32.12-23.61-57.93-55.38-74.66-91.89-14.58-31.83-21.81-65.53-21.47-100.15.32-33.18,7.51-65.45,21.37-95.9,28.46-62.53,82.33-109.47,147.8-128.79,45.67-13.48,93.14-12.44,137.28,3l2.02.71-1.37,1.64c-2.94,3.51-5.67,7.22-8.12,11.03l-.62.96-1.09-.36c-56.95-18.73-120.64-11.14-174.76,20.84-34.77,20.54-63.39,51.34-82.77,89.07-51.11,99.48-18.88,221.44,74.97,283.68,67.2,44.57,152.84,48.27,223.5,9.65,88.6-48.42,133.65-153.54,107.13-249.96l-.3-1.09.97-.58c3.79-2.26,7.49-4.77,10.98-7.48l1.72-1.33.61,2.09c.63,2.14,1.16,4.05,1.62,5.83,11.65,44.64,9.94,91.43-4.95,135.32-14.88,43.86-41.96,81.99-78.31,110.28-20.6,16.03-43.45,28.42-67.93,36.84-24.49,8.42-50.11,12.69-76.14,12.69ZM402.55,164.67c-21.22,0-42.57,3.09-63.53,9.27-64.64,19.08-117.84,65.43-145.94,127.18-28.06,61.65-28.02,132.21.1,193.59,16.52,36.05,42.01,67.43,73.72,90.74,40.41,29.7,87.22,45.44,135.37,45.52h.36c51.95,0,101.13-16.91,142.25-48.9,73.47-57.17,105.74-152.36,82.22-242.51-.3-1.16-.63-2.38-1-3.68-2.77,2.06-5.64,3.99-8.58,5.78,12.63,46.9,9.03,97.68-10.18,143.12-9.63,22.78-22.84,43.65-39.26,62.03-16.97,18.99-36.96,34.84-59.42,47.12-71.63,39.14-158.44,35.4-226.56-9.78-95.11-63.08-127.76-186.68-75.96-287.5,19.64-38.22,48.65-69.43,83.9-90.26,27.3-16.13,56.54-26.19,86.92-29.9,30.38-3.71,60.38-.87,89.19,8.44,1.96-2.98,4.09-5.9,6.35-8.71-22.68-7.69-46.23-11.54-69.93-11.54Z"/>
    </g>
  </g>
  <g>
    <path class="cls-1" d="M491.66,261.75v-3.81h4.42c.27,2.79,3.06,10.06,11.63,10.06,6.32,0,10.54-4.08,10.54-10,0-5.51-3.26-9.72-11.56-9.72h-5.17v-4.9h4.76c6.19,0,9.79-4.01,9.79-9.45,0-4.9-3.33-8.36-8.98-8.36-7.41,0-9.52,6.53-9.79,8.64h-4.08v-3.81c.27-1.77,3.81-9.66,13.87-9.66,9.25,0,14.89,5.3,14.89,12.65,0,5.71-2.99,9.93-8.02,11.9,6.12,1.5,10.2,5.98,10.2,12.65,0,8.84-6.53,14.96-16.46,14.96-12.04,0-15.71-8.91-16.05-11.15Z"/>
    <path class="cls-1" d="M544.63,256.59c0-8.36,2.92-13.19,14.14-27.61l6.39-8.23h4.01v3.6l-5.78,7.48c-3.2,4.22-6.94,8.57-8.98,11.22,2.04-1.77,5.1-2.79,8.09-2.79,10.27,0,16.39,7.28,16.39,16.32s-6.32,16.32-17.14,16.32-17.14-7.34-17.14-16.32ZM573.06,256.59c0-6.8-3.94-11.49-11.22-11.49s-11.36,4.76-11.36,11.49,4.08,11.49,11.29,11.49,11.29-4.83,11.29-11.49Z"/>
    <path class="cls-1" d="M599.17,254.48v-15.1c0-10.34,5.98-18.63,17.07-18.63,11.29-.07,17.07,8.3,17.07,18.63v15.1c0,10.27-5.98,18.63-17.07,18.63s-17.07-8.36-17.07-18.63ZM627.46,254.61v-15.37c0-8.64-4.35-13.67-11.22-13.67s-11.22,5.03-11.22,13.67v15.37c0,8.57,4.35,13.67,11.22,13.67s11.22-5.1,11.22-13.67Z"/>
  </g>
</svg>